<?xml version="1.0" encoding="UTF-8" standalone="no"?>
<!DOCTYPE svg PUBLIC "-//W3C//DTD SVG 1.1//EN"
 "http://www.w3.org/Graphics/SVG/1.1/DTD/svg11.dtd">
<!-- Generated by graphviz version 2.44.0 (20200408.0750)
 -->
<!-- Title: dependency&#45;cruiser output Pages: 1 -->
<svg width="787pt" height="826pt"
 viewBox="0.00 0.00 786.77 826.00" xmlns="http://www.w3.org/2000/svg" xmlns:xlink="http://www.w3.org/1999/xlink">
<g id="graph0" class="graph" transform="scale(1 1) rotate(0) translate(4 822)">
<title>dependency&#45;cruiser output</title>
<polygon fill="white" stroke="transparent" points="-4,4 -4,-822 782.77,-822 782.77,4 -4,4"/>
<g id="clust1" class="cluster">
<title>cluster_integrated&#45;apps</title>
<path fill="#ffffff" stroke="black" stroke-width="2" d="M20,-131C20,-131 758.77,-131 758.77,-131 764.77,-131 770.77,-137 770.77,-143 770.77,-143 770.77,-798 770.77,-798 770.77,-804 764.77,-810 758.77,-810 758.77,-810 20,-810 20,-810 14,-810 8,-804 8,-798 8,-798 8,-143 8,-143 8,-137 14,-131 20,-131"/>
<text text-anchor="middle" x="389.39" y="-797.9" font-family="Helvetica,sans-Serif" font-weight="bold" font-size="9.00">integrated&#45;apps</text>
</g>
<g id="clust2" class="cluster">
<title>cluster_integrated&#45;apps/welcome</title>
<path fill="#ffffff" stroke="black" stroke-width="2" d="M28,-139C28,-139 750.77,-139 750.77,-139 756.77,-139 762.77,-145 762.77,-151 762.77,-151 762.77,-771 762.77,-771 762.77,-777 756.77,-783 750.77,-783 750.77,-783 28,-783 28,-783 22,-783 16,-777 16,-771 16,-771 16,-151 16,-151 16,-145 22,-139 28,-139"/>
<text text-anchor="middle" x="389.39" y="-770.9" font-family="Helvetica,sans-Serif" font-weight="bold" font-size="9.00">welcome</text>
</g>
<g id="clust3" class="cluster">
<title>cluster_integrated&#45;apps/welcome/data</title>
<path fill="#ffffff" stroke="black" stroke-width="2" d="M696.77,-201C696.77,-201 742.77,-201 742.77,-201 748.77,-201 754.77,-207 754.77,-213 754.77,-213 754.77,-242 754.77,-242 754.77,-248 748.77,-254 742.77,-254 742.77,-254 696.77,-254 696.77,-254 690.77,-254 684.77,-248 684.77,-242 684.77,-242 684.77,-213 684.77,-213 684.77,-207 690.77,-201 696.77,-201"/>
<text text-anchor="middle" x="719.77" y="-241.9" font-family="Helvetica,sans-Serif" font-weight="bold" font-size="9.00">data</text>
</g>
<g id="clust4" class="cluster">
<title>cluster_integrated&#45;apps/welcome/src</title>
<path fill="#ffffff" stroke="black" stroke-width="2" d="M36,-147C36,-147 656.02,-147 656.02,-147 662.02,-147 668.02,-153 668.02,-159 668.02,-159 668.02,-718 668.02,-718 668.02,-724 662.02,-730 656.02,-730 656.02,-730 36,-730 36,-730 30,-730 24,-724 24,-718 24,-718 24,-159 24,-159 24,-153 30,-147 36,-147"/>
<text text-anchor="middle" x="346.01" y="-717.9" font-family="Helvetica,sans-Serif" font-weight="bold" font-size="9.00">src</text>
</g>
<g id="clust5" class="cluster">
<title>cluster_integrated&#45;apps/welcome/src/business&#45;logic</title>
<path fill="#ffffff" stroke="black" stroke-width="2" d="M485,-526C485,-526 569.02,-526 569.02,-526 575.02,-526 581.02,-532 581.02,-538 581.02,-538 581.02,-691 581.02,-691 581.02,-697 575.02,-703 569.02,-703 569.02,-703 485,-703 485,-703 479,-703 473,-697 473,-691 473,-691 473,-538 473,-538 473,-532 479,-526 485,-526"/>
<text text-anchor="middle" x="527.01" y="-690.9" font-family="Helvetica,sans-Serif" font-weight="bold" font-size="9.00">business&#45;logic</text>
</g>
<g id="clust6" class="cluster">
<title>cluster_integrated&#45;apps/welcome/src/components</title>
<path fill="#ffffff" stroke="black" stroke-width="2" d="M301,-155C301,-155 558.01,-155 558.01,-155 564.01,-155 570.01,-161 570.01,-167 570.01,-167 570.01,-506 570.01,-506 570.01,-512 564.01,-518 558.01,-518 558.01,-518 301,-518 301,-518 295,-518 289,-512 289,-506 289,-506 289,-167 289,-167 289,-161 295,-155 301,-155"/>
<text text-anchor="middle" x="429.51" y="-505.9" font-family="Helvetica,sans-Serif" font-weight="bold" font-size="9.00">components</text>
</g>
<g id="clust7" class="cluster">
<title>cluster_integrated&#45;apps/welcome/src/components/layout</title>
<path fill="#ffffff" stroke="black" stroke-width="2" d="M324,-163C324,-163 550.01,-163 550.01,-163 556.01,-163 562.01,-169 562.01,-175 562.01,-175 562.01,-235 562.01,-235 562.01,-241 556.01,-247 550.01,-247 550.01,-247 324,-247 324,-247 318,-247 312,-241 312,-235 312,-235 312,-175 312,-175 312,-169 318,-163 324,-163"/>
<text text-anchor="middle" x="437.01" y="-234.9" font-family="Helvetica,sans-Serif" font-weight="bold" font-size="9.00">layout</text>
</g>
<g id="clust8" class="cluster">
<title>cluster_integrated&#45;apps/welcome/src/components/pages</title>
<path fill="#ffffff" stroke="black" stroke-width="2" d="M309,-255C309,-255 386,-255 386,-255 392,-255 398,-261 398,-267 398,-267 398,-479 398,-479 398,-485 392,-491 386,-491 386,-491 309,-491 309,-491 303,-491 297,-485 297,-479 297,-479 297,-267 297,-267 297,-261 303,-255 309,-255"/>
<text text-anchor="middle" x="347.5" y="-478.9" font-family="Helvetica,sans-Serif" font-weight="bold" font-size="9.00">pages</text>
</g>
<g id="clust9" class="cluster">
<title>cluster_integrated&#45;apps/welcome/src/components/pages/change&#45;greeting</title>
<path fill="#ffffff" stroke="black" stroke-width="2" d="M319,-350C319,-350 376,-350 376,-350 382,-350 388,-356 388,-362 388,-362 388,-391 388,-391 388,-397 382,-403 376,-403 376,-403 319,-403 319,-403 313,-403 307,-397 307,-391 307,-391 307,-362 307,-362 307,-356 313,-350 319,-350"/>
<text text-anchor="middle" x="347.5" y="-390.9" font-family="Helvetica,sans-Serif" font-weight="bold" font-size="9.00">change&#45;greeting</text>
</g>
<g id="clust10" class="cluster">
<title>cluster_integrated&#45;apps/welcome/src/components/pages/change&#45;message</title>
<path fill="#ffffff" stroke="black" stroke-width="2" d="M317,-289C317,-289 378,-289 378,-289 384,-289 390,-295 390,-301 390,-301 390,-330 390,-330 390,-336 384,-342 378,-342 378,-342 317,-342 317,-342 311,-342 305,-336 305,-330 305,-330 305,-301 305,-301 305,-295 311,-289 317,-289"/>
<text text-anchor="middle" x="347.5" y="-329.9" font-family="Helvetica,sans-Serif" font-weight="bold" font-size="9.00">change&#45;message</text>
</g>
<g id="clust11" class="cluster">
<title>cluster_integrated&#45;apps/welcome/src/components/pages/home</title>
<path fill="#ffffff" stroke="black" stroke-width="2" d="M324,-411C324,-411 370,-411 370,-411 376,-411 382,-417 382,-423 382,-423 382,-452 382,-452 382,-458 376,-464 370,-464 370,-464 324,-464 324,-464 318,-464 312,-458 312,-452 312,-452 312,-423 312,-423 312,-417 318,-411 324,-411"/>
<text text-anchor="middle" x="347" y="-451.9" font-family="Helvetica,sans-Serif" font-weight="bold" font-size="9.00">home</text>
</g>
<g id="clust12" class="cluster">
<title>cluster_integrated&#45;apps/welcome/src/data&#45;access</title>
<path fill="#ffffff" stroke="black" stroke-width="2" d="M601.02,-155C601.02,-155 648.02,-155 648.02,-155 654.02,-155 660.02,-161 660.02,-167 660.02,-167 660.02,-289 660.02,-289 660.02,-295 654.02,-301 648.02,-301 648.02,-301 601.02,-301 601.02,-301 595.02,-301 589.02,-295 589.02,-289 589.02,-289 589.02,-167 589.02,-167 589.02,-161 595.02,-155 601.02,-155"/>
<text text-anchor="middle" x="624.52" y="-288.9" font-family="Helvetica,sans-Serif" font-weight="bold" font-size="9.00">data&#45;access</text>
</g>
<g id="clust13" class="cluster">
<title>cluster_integrated&#45;apps/welcome/src/init</title>
<path fill="#ffffff" stroke="black" stroke-width="2" d="M44,-293C44,-293 157,-293 157,-293 163,-293 169,-299 169,-305 169,-305 169,-365 169,-365 169,-371 163,-377 157,-377 157,-377 44,-377 44,-377 38,-377 32,-371 32,-365 32,-365 32,-305 32,-305 32,-299 38,-293 44,-293"/>
<text text-anchor="middle" x="100.5" y="-364.9" font-family="Helvetica,sans-Serif" font-weight="bold" font-size="9.00">init</text>
</g>
<g id="clust14" class="cluster">
<title>cluster_lib</title>
<path fill="#ffffff" stroke="black" stroke-width="2" d="M688.02,-8C688.02,-8 751.52,-8 751.52,-8 757.52,-8 763.52,-14 763.52,-20 763.52,-20 763.52,-111 763.52,-111 763.52,-117 757.52,-123 751.52,-123 751.52,-123 688.02,-123 688.02,-123 682.02,-123 676.02,-117 676.02,-111 676.02,-111 676.02,-20 676.02,-20 676.02,-14 682.02,-8 688.02,-8"/>
<text text-anchor="middle" x="719.77" y="-110.9" font-family="Helvetica,sans-Serif" font-weight="bold" font-size="9.00">lib</text>
</g>
<!-- integrated&#45;apps/welcome/config.js -->
<g id="node1" class="node">
<title>integrated&#45;apps/welcome/config.js</title>
<g id="a_node1"><a xlink:href="integrated-apps/welcome/config.js" xlink:title="config.js">
<path fill="#ffffcc" stroke="black" d="M224.8,-756.3C224.8,-756.3 183.2,-756.3 183.2,-756.3 180.1,-756.3 177,-753.2 177,-750.1 177,-750.1 177,-743.9 177,-743.9 177,-740.8 180.1,-737.7 183.2,-737.7 183.2,-737.7 224.8,-737.7 224.8,-737.7 227.9,-737.7 231,-740.8 231,-743.9 231,-743.9 231,-750.1 231,-750.1 231,-753.2 227.9,-756.3 224.8,-756.3"/>
<text text-anchor="middle" x="204" y="-744.3" font-family="Helvetica,sans-Serif" font-size="9.00">config.js</text>
</a>
</g>
</g>
<!-- integrated&#45;apps/welcome/data/friendly.js -->
<g id="node2" class="node">
<title>integrated&#45;apps/welcome/data/friendly.js</title>
<g id="a_node2"><a xlink:href="integrated-apps/welcome/data/friendly.js" xlink:title="friendly.js">
<path fill="#ffffcc" stroke="black" d="M740.57,-227.3C740.57,-227.3 698.97,-227.3 698.97,-227.3 695.87,-227.3 692.77,-224.2 692.77,-221.1 692.77,-221.1 692.77,-214.9 692.77,-214.9 692.77,-211.8 695.87,-208.7 698.97,-208.7 698.97,-208.7 740.57,-208.7 740.57,-208.7 743.67,-208.7 746.77,-211.8 746.77,-214.9 746.77,-214.9 746.77,-221.1 746.77,-221.1 746.77,-224.2 743.67,-227.3 740.57,-227.3"/>
<text text-anchor="middle" x="719.77" y="-215.3" font-family="Helvetica,sans-Serif" font-size="9.00">friendly.js</text>
</a>
</g>
</g>
<!-- integrated&#45;apps/welcome/src/business&#45;logic/be&#45;welcoming.js -->
<g id="node3" class="node">
<title>integrated&#45;apps/welcome/src/business&#45;logic/be&#45;welcoming.js</title>
<g id="a_node3"><a xlink:href="integrated-apps/welcome/src/business-logic/be-welcoming.js" xlink:title="be&#45;welcoming.js">
<path fill="#ffffcc" stroke="black" d="M560.81,-676.3C560.81,-676.3 493.21,-676.3 493.21,-676.3 490.11,-676.3 487.01,-673.2 487.01,-670.1 487.01,-670.1 487.01,-663.9 487.01,-663.9 487.01,-660.8 490.11,-657.7 493.21,-657.7 493.21,-657.7 560.81,-657.7 560.81,-657.7 563.91,-657.7 567.01,-660.8 567.01,-663.9 567.01,-663.9 567.01,-670.1 567.01,-670.1 567.01,-673.2 563.91,-676.3 560.81,-676.3"/>
<text text-anchor="middle" x="527.01" y="-664.3" font-family="Helvetica,sans-Serif" font-size="9.00">be&#45;welcoming.js</text>
</a>
</g>
</g>
<!-- integrated&#45;apps/welcome/src/data&#45;access/read.js -->
<g id="node4" class="node">
<title>integrated&#45;apps/welcome/src/data&#45;access/read.js</title>
<g id="a_node4"><a xlink:href="integrated-apps/welcome/src/data-access/read.js" xlink:title="read.js">
<path fill="#ffffcc" stroke="black" d="M645.32,-274.3C645.32,-274.3 603.72,-274.3 603.72,-274.3 600.62,-274.3 597.52,-271.2 597.52,-268.1 597.52,-268.1 597.52,-261.9 597.52,-261.9 597.52,-258.8 600.62,-255.7 603.72,-255.7 603.72,-255.7 645.32,-255.7 645.32,-255.7 648.42,-255.7 651.52,-258.8 651.52,-261.9 651.52,-261.9 651.52,-268.1 651.52,-268.1 651.52,-271.2 648.42,-274.3 645.32,-274.3"/>
<text text-anchor="middle" x="624.52" y="-262.3" font-family="Helvetica,sans-Serif" font-size="9.00">read.js</text>
</a>
</g>
</g>
<!-- integrated&#45;apps/welcome/src/business&#45;logic/be&#45;welcoming.js&#45;&gt;integrated&#45;apps/welcome/src/data&#45;access/read.js -->
<g id="edge1" class="edge">
<title>integrated&#45;apps/welcome/src/business&#45;logic/be&#45;welcoming.js&#45;&gt;integrated&#45;apps/welcome/src/data&#45;access/read.js</title>
<path fill="none" stroke="#000000" stroke-width="2" stroke-opacity="0.200000" d="M567.17,-661.02C572.46,-658.67 577.34,-655.43 581.02,-651 605.09,-622.06 619.51,-349.85 622.8,-280.84"/>
<polygon fill="#000000" fill-opacity="0.200000" stroke="#000000" stroke-width="2" stroke-opacity="0.200000" points="624.91,-280.56 623.1,-274.47 620.72,-280.36 624.91,-280.56"/>
</g>
<!-- integrated&#45;apps/welcome/src/data&#45;access/read.js&#45;&gt;integrated&#45;apps/welcome/data/friendly.js -->
<g id="edge17" class="edge">
<title>integrated&#45;apps/welcome/src/data&#45;access/read.js&#45;&gt;integrated&#45;apps/welcome/data/friendly.js</title>
<path fill="none" stroke="#000000" stroke-width="2" stroke-opacity="0.200000" d="M651.92,-255.94C657.33,-253.85 662.92,-251.49 668.02,-249 678.88,-243.7 690.42,-236.77 699.74,-230.8"/>
<polygon fill="#000000" fill-opacity="0.200000" stroke="#000000" stroke-width="2" stroke-opacity="0.200000" points="701.06,-232.45 704.96,-227.42 698.78,-228.92 701.06,-232.45"/>
</g>
<!-- lib/deep&#45;clone.js -->
<g id="node18" class="node">
<title>lib/deep&#45;clone.js</title>
<g id="a_node18"><a xlink:href="lib/deep-clone.js" xlink:title="deep&#45;clone.js">
<polygon fill="#ffffcc" stroke="black" points="754.29,-96.3 752.74,-98.37 741.89,-98.37 740.34,-96.3 685.26,-96.3 685.26,-77.7 754.29,-77.7 754.29,-96.3"/>
<text text-anchor="middle" x="719.77" y="-84.3" font-family="Helvetica,sans-Serif" font-size="9.00">deep&#45;clone.js</text>
</a>
</g>
</g>
<!-- integrated&#45;apps/welcome/src/data&#45;access/read.js&#45;&gt;lib/deep&#45;clone.js -->
<g id="edge16" class="edge">
<title>integrated&#45;apps/welcome/src/data&#45;access/read.js&#45;&gt;lib/deep&#45;clone.js</title>
<path fill="none" stroke="#000000" stroke-width="2" stroke-opacity="0.200000" d="M651.64,-259.99C657.83,-257.62 663.84,-254.14 668.02,-249 682.51,-231.21 670.09,-220.16 676.02,-198 685.45,-162.78 702.21,-123.34 711.7,-102.25"/>
<polygon fill="#000000" fill-opacity="0.200000" stroke="#000000" stroke-width="2" stroke-opacity="0.200000" points="713.72,-102.9 714.29,-96.57 709.89,-101.16 713.72,-102.9"/>
</g>
<!-- integrated&#45;apps/welcome/src/business&#45;logic/read&#45;greeting.js -->
<g id="node5" class="node">
<title>integrated&#45;apps/welcome/src/business&#45;logic/read&#45;greeting.js</title>
<g id="a_node5"><a xlink:href="integrated-apps/welcome/src/business-logic/read-greeting.js" xlink:title="read&#45;greeting.js">
<path fill="#ffffcc" stroke="black" d="M559.82,-645.3C559.82,-645.3 494.2,-645.3 494.2,-645.3 491.1,-645.3 488,-642.2 488,-639.1 488,-639.1 488,-632.9 488,-632.9 488,-629.8 491.1,-626.7 494.2,-626.7 494.2,-626.7 559.82,-626.7 559.82,-626.7 562.92,-626.7 566.02,-629.8 566.02,-632.9 566.02,-632.9 566.02,-639.1 566.02,-639.1 566.02,-642.2 562.92,-645.3 559.82,-645.3"/>
<text text-anchor="middle" x="527.01" y="-633.3" font-family="Helvetica,sans-Serif" font-size="9.00">read&#45;greeting.js</text>
</a>
</g>
</g>
<!-- integrated&#45;apps/welcome/src/business&#45;logic/read&#45;greeting.js&#45;&gt;integrated&#45;apps/welcome/src/data&#45;access/read.js -->
<g id="edge2" class="edge">
<title>integrated&#45;apps/welcome/src/business&#45;logic/read&#45;greeting.js&#45;&gt;integrated&#45;apps/welcome/src/data&#45;access/read.js</title>
<path fill="none" stroke="#000000" stroke-width="2" stroke-opacity="0.200000" d="M566.06,-630.45C571.78,-628.07 577.07,-624.71 581.02,-620 625.02,-567.6 624.76,-342.16 623.84,-280.59"/>
<polygon fill="#000000" fill-opacity="0.200000" stroke="#000000" stroke-width="2" stroke-opacity="0.200000" points="625.94,-280.49 623.74,-274.53 621.74,-280.56 625.94,-280.49"/>
</g>
<!-- integrated&#45;apps/welcome/src/business&#45;logic/read&#45;message.js -->
<g id="node6" class="node">
<title>integrated&#45;apps/welcome/src/business&#45;logic/read&#45;message.js</title>
<g id="a_node6"><a xlink:href="integrated-apps/welcome/src/business-logic/read-message.js" xlink:title="read&#45;message.js">
<path fill="#ffffcc" stroke="black" d="M561.82,-583.3C561.82,-583.3 492.2,-583.3 492.2,-583.3 489.1,-583.3 486,-580.2 486,-577.1 486,-577.1 486,-570.9 486,-570.9 486,-567.8 489.1,-564.7 492.2,-564.7 492.2,-564.7 561.82,-564.7 561.82,-564.7 564.92,-564.7 568.02,-567.8 568.02,-570.9 568.02,-570.9 568.02,-577.1 568.02,-577.1 568.02,-580.2 564.92,-583.3 561.82,-583.3"/>
<text text-anchor="middle" x="527.01" y="-571.3" font-family="Helvetica,sans-Serif" font-size="9.00">read&#45;message.js</text>
</a>
</g>
</g>
<!-- integrated&#45;apps/welcome/src/business&#45;logic/read&#45;message.js&#45;&gt;integrated&#45;apps/welcome/src/data&#45;access/read.js -->
<g id="edge3" class="edge">
<title>integrated&#45;apps/welcome/src/business&#45;logic/read&#45;message.js&#45;&gt;integrated&#45;apps/welcome/src/data&#45;access/read.js</title>
<path fill="none" stroke="#000000" stroke-width="2" stroke-opacity="0.200000" d="M568.09,-567.43C573,-565.14 577.51,-562.08 581.02,-558 617.37,-515.79 622.63,-335.05 623.39,-280.59"/>
<polygon fill="#000000" fill-opacity="0.200000" stroke="#000000" stroke-width="2" stroke-opacity="0.200000" points="625.5,-280.34 623.47,-274.31 621.3,-280.29 625.5,-280.34"/>
</g>
<!-- integrated&#45;apps/welcome/src/business&#45;logic/update&#45;greeting.js -->
<g id="node7" class="node">
<title>integrated&#45;apps/welcome/src/business&#45;logic/update&#45;greeting.js</title>
<g id="a_node7"><a xlink:href="integrated-apps/welcome/src/business-logic/update-greeting.js" xlink:title="update&#45;greeting.js">
<path fill="#ffffcc" stroke="black" d="M564.83,-614.3C564.83,-614.3 489.19,-614.3 489.19,-614.3 486.09,-614.3 482.99,-611.2 482.99,-608.1 482.99,-608.1 482.99,-601.9 482.99,-601.9 482.99,-598.8 486.09,-595.7 489.19,-595.7 489.19,-595.7 564.83,-595.7 564.83,-595.7 567.93,-595.7 571.03,-598.8 571.03,-601.9 571.03,-601.9 571.03,-608.1 571.03,-608.1 571.03,-611.2 567.93,-614.3 564.83,-614.3"/>
<text text-anchor="middle" x="527.01" y="-602.3" font-family="Helvetica,sans-Serif" font-size="9.00">update&#45;greeting.js</text>
</a>
</g>
</g>
<!-- integrated&#45;apps/welcome/src/data&#45;access/update.js -->
<g id="node8" class="node">
<title>integrated&#45;apps/welcome/src/data&#45;access/update.js</title>
<g id="a_node8"><a xlink:href="integrated-apps/welcome/src/data-access/update.js" xlink:title="update.js">
<path fill="#ffffcc" stroke="black" d="M645.32,-212.3C645.32,-212.3 603.72,-212.3 603.72,-212.3 600.62,-212.3 597.52,-209.2 597.52,-206.1 597.52,-206.1 597.52,-199.9 597.52,-199.9 597.52,-196.8 600.62,-193.7 603.72,-193.7 603.72,-193.7 645.32,-193.7 645.32,-193.7 648.42,-193.7 651.52,-196.8 651.52,-199.9 651.52,-199.9 651.52,-206.1 651.52,-206.1 651.52,-209.2 648.42,-212.3 645.32,-212.3"/>
<text text-anchor="middle" x="624.52" y="-200.3" font-family="Helvetica,sans-Serif" font-size="9.00">update.js</text>
</a>
</g>
</g>
<!-- integrated&#45;apps/welcome/src/business&#45;logic/update&#45;greeting.js&#45;&gt;integrated&#45;apps/welcome/src/data&#45;access/update.js -->
<g id="edge4" class="edge">
<title>integrated&#45;apps/welcome/src/business&#45;logic/update&#45;greeting.js&#45;&gt;integrated&#45;apps/welcome/src/data&#45;access/update.js</title>
<path fill="none" stroke="#000000" stroke-width="2" stroke-opacity="0.200000" d="M571.1,-597.47C574.92,-595.29 578.35,-592.52 581.02,-589 593.46,-572.63 577.77,-236.21 589.02,-219 590.01,-217.5 591.17,-216.13 592.46,-214.9"/>
<polygon fill="#000000" fill-opacity="0.200000" stroke="#000000" stroke-width="2" stroke-opacity="0.200000" points="593.83,-216.49 597.29,-211.16 591.26,-213.17 593.83,-216.49"/>
</g>
<!-- integrated&#45;apps/welcome/src/data&#45;access/update.js&#45;&gt;integrated&#45;apps/welcome/data/friendly.js -->
<g id="edge22" class="edge">
<title>integrated&#45;apps/welcome/src/data&#45;access/update.js&#45;&gt;integrated&#45;apps/welcome/data/friendly.js</title>
<path fill="none" stroke="#000000" stroke-width="2" stroke-opacity="0.200000" d="M652,-207.26C662.72,-208.98 675.2,-210.99 686.45,-212.8"/>
<polygon fill="#000000" fill-opacity="0.200000" stroke="#000000" stroke-width="2" stroke-opacity="0.200000" points="686.3,-214.9 692.56,-213.78 686.97,-210.76 686.3,-214.9"/>
</g>
<!-- integrated&#45;apps/welcome/src/data&#45;access/update.js&#45;&gt;lib/deep&#45;clone.js -->
<g id="edge20" class="edge">
<title>integrated&#45;apps/welcome/src/data&#45;access/update.js&#45;&gt;lib/deep&#45;clone.js</title>
<path fill="none" stroke="#000000" stroke-width="2" stroke-opacity="0.200000" d="M651.95,-196.5C657.71,-194.19 663.44,-191.1 668.02,-187 694.02,-163.71 708.5,-123.99 714.84,-102.28"/>
<polygon fill="#000000" fill-opacity="0.200000" stroke="#000000" stroke-width="2" stroke-opacity="0.200000" points="716.89,-102.75 716.48,-96.41 712.84,-101.62 716.89,-102.75"/>
</g>
<!-- lib/is&#45;json&#45;data.js -->
<g id="node19" class="node">
<title>lib/is&#45;json&#45;data.js</title>
<g id="a_node19"><a xlink:href="lib/is-json-data.js" xlink:title="is&#45;json&#45;data.js">
<polygon fill="#ffffcc" stroke="black" points="755.28,-65.3 753.73,-67.37 742.87,-67.37 741.32,-65.3 684.27,-65.3 684.27,-46.7 755.28,-46.7 755.28,-65.3"/>
<text text-anchor="middle" x="719.77" y="-53.3" font-family="Helvetica,sans-Serif" font-size="9.00">is&#45;json&#45;data.js</text>
</a>
</g>
</g>
<!-- integrated&#45;apps/welcome/src/data&#45;access/update.js&#45;&gt;lib/is&#45;json&#45;data.js -->
<g id="edge21" class="edge">
<title>integrated&#45;apps/welcome/src/data&#45;access/update.js&#45;&gt;lib/is&#45;json&#45;data.js</title>
<path fill="none" stroke="#000000" stroke-width="2" stroke-opacity="0.200000" d="M651.94,-198.23C658.13,-195.86 664.07,-192.31 668.02,-187 683.32,-166.45 660.7,-92.53 676.02,-72 676.98,-70.72 678.04,-69.55 679.2,-68.46"/>
<polygon fill="#000000" fill-opacity="0.200000" stroke="#000000" stroke-width="2" stroke-opacity="0.200000" points="680.58,-70.05 684.07,-64.74 678.03,-66.72 680.58,-70.05"/>
</g>
<!-- integrated&#45;apps/welcome/src/business&#45;logic/update&#45;message.js -->
<g id="node9" class="node">
<title>integrated&#45;apps/welcome/src/business&#45;logic/update&#45;message.js</title>
<g id="a_node9"><a xlink:href="integrated-apps/welcome/src/business-logic/update-message.js" xlink:title="update&#45;message.js">
<path fill="#ffffcc" stroke="black" d="M566.83,-552.3C566.83,-552.3 487.19,-552.3 487.19,-552.3 484.09,-552.3 480.99,-549.2 480.99,-546.1 480.99,-546.1 480.99,-539.9 480.99,-539.9 480.99,-536.8 484.09,-533.7 487.19,-533.7 487.19,-533.7 566.83,-533.7 566.83,-533.7 569.93,-533.7 573.03,-536.8 573.03,-539.9 573.03,-539.9 573.03,-546.1 573.03,-546.1 573.03,-549.2 569.93,-552.3 566.83,-552.3"/>
<text text-anchor="middle" x="527.01" y="-540.3" font-family="Helvetica,sans-Serif" font-size="9.00">update&#45;message.js</text>
</a>
</g>
</g>
<!-- integrated&#45;apps/welcome/src/business&#45;logic/update&#45;message.js&#45;&gt;integrated&#45;apps/welcome/src/data&#45;access/update.js -->
<g id="edge5" class="edge">
<title>integrated&#45;apps/welcome/src/business&#45;logic/update&#45;message.js&#45;&gt;integrated&#45;apps/welcome/src/data&#45;access/update.js</title>
<path fill="none" stroke="#000000" stroke-width="2" stroke-opacity="0.200000" d="M529.68,-533.51C538.95,-480.74 583.98,-225.48 589.02,-219 590.02,-217.72 591.14,-216.54 592.35,-215.46"/>
<polygon fill="#000000" fill-opacity="0.200000" stroke="#000000" stroke-width="2" stroke-opacity="0.200000" points="593.85,-216.96 597.41,-211.7 591.34,-213.59 593.85,-216.96"/>
</g>
<!-- integrated&#45;apps/welcome/src/components/layout/footer.js -->
<g id="node10" class="node">
<title>integrated&#45;apps/welcome/src/components/layout/footer.js</title>
<g id="a_node10"><a xlink:href="integrated-apps/welcome/src/components/layout/footer.js" xlink:title="footer.js">
<path fill="#ffffcc" stroke="black" d="M547.81,-189.3C547.81,-189.3 506.21,-189.3 506.21,-189.3 503.11,-189.3 500.01,-186.2 500.01,-183.1 500.01,-183.1 500.01,-176.9 500.01,-176.9 500.01,-173.8 503.11,-170.7 506.21,-170.7 506.21,-170.7 547.81,-170.7 547.81,-170.7 550.91,-170.7 554.01,-173.8 554.01,-176.9 554.01,-176.9 554.01,-183.1 554.01,-183.1 554.01,-186.2 550.91,-189.3 547.81,-189.3"/>
<text text-anchor="middle" x="527.01" y="-177.3" font-family="Helvetica,sans-Serif" font-size="9.00">footer.js</text>
</a>
</g>
</g>
<!-- integrated&#45;apps/welcome/src/components/layout/navbar.js -->
<g id="node11" class="node">
<title>integrated&#45;apps/welcome/src/components/layout/navbar.js</title>
<g id="a_node11"><a xlink:href="integrated-apps/welcome/src/components/layout/navbar.js" xlink:title="navbar.js">
<path fill="#ffffcc" stroke="black" d="M547.81,-220.3C547.81,-220.3 506.21,-220.3 506.21,-220.3 503.11,-220.3 500.01,-217.2 500.01,-214.1 500.01,-214.1 500.01,-207.9 500.01,-207.9 500.01,-204.8 503.11,-201.7 506.21,-201.7 506.21,-201.7 547.81,-201.7 547.81,-201.7 550.91,-201.7 554.01,-204.8 554.01,-207.9 554.01,-207.9 554.01,-214.1 554.01,-214.1 554.01,-217.2 550.91,-220.3 547.81,-220.3"/>
<text text-anchor="middle" x="527.01" y="-208.3" font-family="Helvetica,sans-Serif" font-size="9.00">navbar.js</text>
</a>
</g>
</g>
<!-- integrated&#45;apps/welcome/src/components/layout/page.js -->
<g id="node12" class="node">
<title>integrated&#45;apps/welcome/src/components/layout/page.js</title>
<g id="a_node12"><a xlink:href="integrated-apps/welcome/src/components/layout/page.js" xlink:title="page.js">
<path fill="#ffffcc" stroke="black" d="M367.8,-220.3C367.8,-220.3 326.2,-220.3 326.2,-220.3 323.1,-220.3 320,-217.2 320,-214.1 320,-214.1 320,-207.9 320,-207.9 320,-204.8 323.1,-201.7 326.2,-201.7 326.2,-201.7 367.8,-201.7 367.8,-201.7 370.9,-201.7 374,-204.8 374,-207.9 374,-207.9 374,-214.1 374,-214.1 374,-217.2 370.9,-220.3 367.8,-220.3"/>
<text text-anchor="middle" x="347" y="-208.3" font-family="Helvetica,sans-Serif" font-size="9.00">page.js</text>
</a>
</g>
</g>
<!-- integrated&#45;apps/welcome/src/components/layout/page.js&#45;&gt;integrated&#45;apps/welcome/src/components/layout/footer.js -->
<g id="edge6" class="edge">
<title>integrated&#45;apps/welcome/src/components/layout/page.js&#45;&gt;integrated&#45;apps/welcome/src/components/layout/footer.js</title>
<path fill="none" stroke="#000000" stroke-width="2" stroke-opacity="0.200000" d="M374.27,-206.43C406.04,-200.89 459.52,-191.58 493.77,-185.62"/>
<polygon fill="#000000" fill-opacity="0.200000" stroke="#000000" stroke-width="2" stroke-opacity="0.200000" points="494.38,-187.64 499.93,-184.54 493.66,-183.5 494.38,-187.64"/>
</g>
<!-- integrated&#45;apps/welcome/src/components/layout/page.js&#45;&gt;integrated&#45;apps/welcome/src/components/layout/navbar.js -->
<g id="edge7" class="edge">
<title>integrated&#45;apps/welcome/src/components/layout/page.js&#45;&gt;integrated&#45;apps/welcome/src/components/layout/navbar.js</title>
<path fill="none" stroke="#000000" stroke-width="2" stroke-opacity="0.200000" d="M374.27,-211C406.04,-211 459.52,-211 493.77,-211"/>
<polygon fill="#000000" fill-opacity="0.200000" stroke="#000000" stroke-width="2" stroke-opacity="0.200000" points="493.93,-213.1 499.93,-211 493.93,-208.9 493.93,-213.1"/>
</g>
<!-- integrated&#45;apps/welcome/src/components/pages/change&#45;greeting/index.js -->
<g id="node13" class="node">
<title>integrated&#45;apps/welcome/src/components/pages/change&#45;greeting/index.js</title>
<g id="a_node13"><a xlink:href="integrated-apps/welcome/src/components/pages/change-greeting/index.js" xlink:title="index.js">
<path fill="#ffffcc" stroke="black" d="M367.8,-376.3C367.8,-376.3 326.2,-376.3 326.2,-376.3 323.1,-376.3 320,-373.2 320,-370.1 320,-370.1 320,-363.9 320,-363.9 320,-360.8 323.1,-357.7 326.2,-357.7 326.2,-357.7 367.8,-357.7 367.8,-357.7 370.9,-357.7 374,-360.8 374,-363.9 374,-363.9 374,-370.1 374,-370.1 374,-373.2 370.9,-376.3 367.8,-376.3"/>
<text text-anchor="middle" x="347" y="-364.3" font-family="Helvetica,sans-Serif" font-size="9.00">index.js</text>
</a>
</g>
</g>
<!-- integrated&#45;apps/welcome/src/components/pages/change&#45;greeting/index.js&#45;&gt;integrated&#45;apps/welcome/src/business&#45;logic/read&#45;greeting.js -->
<g id="edge8" class="edge">
<title>integrated&#45;apps/welcome/src/components/pages/change&#45;greeting/index.js&#45;&gt;integrated&#45;apps/welcome/src/business&#45;logic/read&#45;greeting.js</title>
<path fill="none" stroke="#000000" stroke-width="2" stroke-opacity="0.200000" d="M363.47,-376.39C374.46,-383.76 388.84,-394.95 398,-408 455.42,-489.8 400.69,-551 473,-620 475.79,-622.66 479,-624.87 482.43,-626.72"/>
<polygon fill="#000000" fill-opacity="0.200000" stroke="#000000" stroke-width="2" stroke-opacity="0.200000" points="481.66,-628.68 487.98,-629.34 483.45,-624.88 481.66,-628.68"/>
</g>
<!-- integrated&#45;apps/welcome/src/components/pages/change&#45;greeting/index.js&#45;&gt;integrated&#45;apps/welcome/src/business&#45;logic/update&#45;greeting.js -->
<g id="edge9" class="edge">
<title>integrated&#45;apps/welcome/src/components/pages/change&#45;greeting/index.js&#45;&gt;integrated&#45;apps/welcome/src/business&#45;logic/update&#45;greeting.js</title>
<path fill="none" stroke="#000000" stroke-width="2" stroke-opacity="0.200000" d="M363.27,-376.53C374.16,-383.98 388.5,-395.2 398,-408 449.89,-477.93 408.44,-530.57 473,-589 474.37,-590.24 475.84,-591.38 477.37,-592.44"/>
<polygon fill="#000000" fill-opacity="0.200000" stroke="#000000" stroke-width="2" stroke-opacity="0.200000" points="476.6,-594.43 482.83,-595.7 478.75,-590.82 476.6,-594.43"/>
</g>
<!-- integrated&#45;apps/welcome/src/components/pages/change&#45;message/index.js -->
<g id="node14" class="node">
<title>integrated&#45;apps/welcome/src/components/pages/change&#45;message/index.js</title>
<g id="a_node14"><a xlink:href="integrated-apps/welcome/src/components/pages/change-message/index.js" xlink:title="index.js">
<path fill="#ffffcc" stroke="black" d="M367.8,-315.3C367.8,-315.3 326.2,-315.3 326.2,-315.3 323.1,-315.3 320,-312.2 320,-309.1 320,-309.1 320,-302.9 320,-302.9 320,-299.8 323.1,-296.7 326.2,-296.7 326.2,-296.7 367.8,-296.7 367.8,-296.7 370.9,-296.7 374,-299.8 374,-302.9 374,-302.9 374,-309.1 374,-309.1 374,-312.2 370.9,-315.3 367.8,-315.3"/>
<text text-anchor="middle" x="347" y="-303.3" font-family="Helvetica,sans-Serif" font-size="9.00">index.js</text>
</a>
</g>
</g>
<!-- integrated&#45;apps/welcome/src/components/pages/change&#45;message/index.js&#45;&gt;integrated&#45;apps/welcome/src/business&#45;logic/read&#45;message.js -->
<g id="edge10" class="edge">
<title>integrated&#45;apps/welcome/src/components/pages/change&#45;message/index.js&#45;&gt;integrated&#45;apps/welcome/src/business&#45;logic/read&#45;message.js</title>
<path fill="none" stroke="#000000" stroke-width="2" stroke-opacity="0.200000" d="M363.46,-315.39C374.45,-322.77 388.83,-333.96 398,-347 455.24,-428.42 400.95,-489.35 473,-558 475.19,-560.09 477.65,-561.9 480.26,-563.48"/>
<polygon fill="#000000" fill-opacity="0.200000" stroke="#000000" stroke-width="2" stroke-opacity="0.200000" points="479.55,-565.48 485.84,-566.4 481.5,-561.76 479.55,-565.48"/>
</g>
<!-- integrated&#45;apps/welcome/src/components/pages/change&#45;message/index.js&#45;&gt;integrated&#45;apps/welcome/src/business&#45;logic/update&#45;message.js -->
<g id="edge11" class="edge">
<title>integrated&#45;apps/welcome/src/components/pages/change&#45;message/index.js&#45;&gt;integrated&#45;apps/welcome/src/business&#45;logic/update&#45;message.js</title>
<path fill="none" stroke="#000000" stroke-width="2" stroke-opacity="0.200000" d="M361.7,-315.45C372.33,-323.18 387.06,-334.8 398,-347 452.4,-407.63 500.08,-493.45 518.22,-527.86"/>
<polygon fill="#000000" fill-opacity="0.200000" stroke="#000000" stroke-width="2" stroke-opacity="0.200000" points="516.42,-528.96 521.07,-533.3 520.15,-527.01 516.42,-528.96"/>
</g>
<!-- integrated&#45;apps/welcome/src/components/pages/four&#45;oh&#45;four.js -->
<g id="node15" class="node">
<title>integrated&#45;apps/welcome/src/components/pages/four&#45;oh&#45;four.js</title>
<g id="a_node15"><a xlink:href="integrated-apps/welcome/src/components/pages/four-oh-four.js" xlink:title="four&#45;oh&#45;four.js">
<path fill="#ffffcc" stroke="black" d="M376.8,-281.3C376.8,-281.3 317.2,-281.3 317.2,-281.3 314.1,-281.3 311,-278.2 311,-275.1 311,-275.1 311,-268.9 311,-268.9 311,-265.8 314.1,-262.7 317.2,-262.7 317.2,-262.7 376.8,-262.7 376.8,-262.7 379.9,-262.7 383.01,-265.8 383.01,-268.9 383.01,-268.9 383.01,-275.1 383.01,-275.1 383.01,-278.2 379.9,-281.3 376.8,-281.3"/>
<text text-anchor="middle" x="347" y="-269.3" font-family="Helvetica,sans-Serif" font-size="9.00">four&#45;oh&#45;four.js</text>
</a>
</g>
</g>
<!-- integrated&#45;apps/welcome/src/components/pages/home/index.js -->
<g id="node16" class="node">
<title>integrated&#45;apps/welcome/src/components/pages/home/index.js</title>
<g id="a_node16"><a xlink:href="integrated-apps/welcome/src/components/pages/home/index.js" xlink:title="index.js">
<path fill="#ffffcc" stroke="black" d="M367.8,-437.3C367.8,-437.3 326.2,-437.3 326.2,-437.3 323.1,-437.3 320,-434.2 320,-431.1 320,-431.1 320,-424.9 320,-424.9 320,-421.8 323.1,-418.7 326.2,-418.7 326.2,-418.7 367.8,-418.7 367.8,-418.7 370.9,-418.7 374,-421.8 374,-424.9 374,-424.9 374,-431.1 374,-431.1 374,-434.2 370.9,-437.3 367.8,-437.3"/>
<text text-anchor="middle" x="347" y="-425.3" font-family="Helvetica,sans-Serif" font-size="9.00">index.js</text>
</a>
</g>
</g>
<!-- integrated&#45;apps/welcome/src/components/pages/home/index.js&#45;&gt;integrated&#45;apps/welcome/src/business&#45;logic/be&#45;welcoming.js -->
<g id="edge12" class="edge">
<title>integrated&#45;apps/welcome/src/components/pages/home/index.js&#45;&gt;integrated&#45;apps/welcome/src/business&#45;logic/be&#45;welcoming.js</title>
<path fill="none" stroke="#000000" stroke-width="2" stroke-opacity="0.200000" d="M350.59,-437.75C360.31,-472.4 397.9,-590.7 473,-651 475.58,-653.07 478.42,-654.87 481.41,-656.44"/>
<polygon fill="#000000" fill-opacity="0.200000" stroke="#000000" stroke-width="2" stroke-opacity="0.200000" points="480.59,-658.38 486.92,-659.02 482.37,-654.57 480.59,-658.38"/>
</g>
<!-- integrated&#45;apps/welcome/src/data&#45;access/create.js -->
<g id="node17" class="node">
<title>integrated&#45;apps/welcome/src/data&#45;access/create.js</title>
<g id="a_node17"><a xlink:href="integrated-apps/welcome/src/data-access/create.js" xlink:title="create.js">
<path fill="#ffffcc" stroke="black" d="M645.32,-181.3C645.32,-181.3 603.72,-181.3 603.72,-181.3 600.62,-181.3 597.52,-178.2 597.52,-175.1 597.52,-175.1 597.52,-168.9 597.52,-168.9 597.52,-165.8 600.62,-162.7 603.72,-162.7 603.72,-162.7 645.32,-162.7 645.32,-162.7 648.42,-162.7 651.52,-165.8 651.52,-168.9 651.52,-168.9 651.52,-175.1 651.52,-175.1 651.52,-178.2 648.42,-181.3 645.32,-181.3"/>
<text text-anchor="middle" x="624.52" y="-169.3" font-family="Helvetica,sans-Serif" font-size="9.00">create.js</text>
</a>
</g>
</g>
<!-- integrated&#45;apps/welcome/src/data&#45;access/create.js&#45;&gt;integrated&#45;apps/welcome/data/friendly.js -->
<g id="edge15" class="edge">
<title>integrated&#45;apps/welcome/src/data&#45;access/create.js&#45;&gt;integrated&#45;apps/welcome/data/friendly.js</title>
<path fill="none" stroke="#000000" stroke-width="2" stroke-opacity="0.200000" d="M651.89,-181.11C657.3,-183.21 662.9,-185.55 668.02,-188 678.67,-193.1 690.03,-199.7 699.29,-205.41"/>
<polygon fill="#000000" fill-opacity="0.200000" stroke="#000000" stroke-width="2" stroke-opacity="0.200000" points="698.28,-207.25 704.48,-208.65 700.5,-203.69 698.28,-207.25"/>
</g>
<!-- integrated&#45;apps/welcome/src/data&#45;access/create.js&#45;&gt;lib/deep&#45;clone.js -->
<g id="edge13" class="edge">
<title>integrated&#45;apps/welcome/src/data&#45;access/create.js&#45;&gt;lib/deep&#45;clone.js</title>
<path fill="none" stroke="#000000" stroke-width="2" stroke-opacity="0.200000" d="M635.86,-162.58C652.38,-147.52 684.82,-117.95 703.86,-100.6"/>
<polygon fill="#000000" fill-opacity="0.200000" stroke="#000000" stroke-width="2" stroke-opacity="0.200000" points="705.37,-102.06 708.39,-96.46 702.54,-98.95 705.37,-102.06"/>
</g>
<!-- integrated&#45;apps/welcome/src/data&#45;access/create.js&#45;&gt;lib/is&#45;json&#45;data.js -->
<g id="edge14" class="edge">
<title>integrated&#45;apps/welcome/src/data&#45;access/create.js&#45;&gt;lib/is&#45;json&#45;data.js</title>
<path fill="none" stroke="#000000" stroke-width="2" stroke-opacity="0.200000" d="M631.1,-162.32C639.58,-147.45 655.98,-117.96 668.02,-92 672.05,-83.32 669.18,-78.69 676.02,-72 677.16,-70.88 678.39,-69.85 679.68,-68.88"/>
<polygon fill="#000000" fill-opacity="0.200000" stroke="#000000" stroke-width="2" stroke-opacity="0.200000" points="681.03,-70.51 684.93,-65.49 678.75,-66.98 681.03,-70.51"/>
</g>
<!-- integrated&#45;apps/welcome/src/data&#45;access/remove.js -->
<g id="node20" class="node">
<title>integrated&#45;apps/welcome/src/data&#45;access/remove.js</title>
<g id="a_node20"><a xlink:href="integrated-apps/welcome/src/data-access/remove.js" xlink:title="remove.js">
<path fill="#ffffcc" stroke="black" d="M645.82,-243.3C645.82,-243.3 603.22,-243.3 603.22,-243.3 600.12,-243.3 597.02,-240.2 597.02,-237.1 597.02,-237.1 597.02,-230.9 597.02,-230.9 597.02,-227.8 600.12,-224.7 603.22,-224.7 603.22,-224.7 645.82,-224.7 645.82,-224.7 648.92,-224.7 652.02,-227.8 652.02,-230.9 652.02,-230.9 652.02,-237.1 652.02,-237.1 652.02,-240.2 648.92,-243.3 645.82,-243.3"/>
<text text-anchor="middle" x="624.52" y="-231.3" font-family="Helvetica,sans-Serif" font-size="9.00">remove.js</text>
</a>
</g>
</g>
<!-- integrated&#45;apps/welcome/src/data&#45;access/remove.js&#45;&gt;integrated&#45;apps/welcome/data/friendly.js -->
<g id="edge19" class="edge">
<title>integrated&#45;apps/welcome/src/data&#45;access/remove.js&#45;&gt;integrated&#45;apps/welcome/data/friendly.js</title>
<path fill="none" stroke="#000000" stroke-width="2" stroke-opacity="0.200000" d="M652.49,-229.37C663.11,-227.55 675.4,-225.44 686.49,-223.54"/>
<polygon fill="#000000" fill-opacity="0.200000" stroke="#000000" stroke-width="2" stroke-opacity="0.200000" points="686.95,-225.59 692.5,-222.51 686.24,-221.45 686.95,-225.59"/>
</g>
<!-- integrated&#45;apps/welcome/src/data&#45;access/remove.js&#45;&gt;lib/deep&#45;clone.js -->
<g id="edge18" class="edge">
<title>integrated&#45;apps/welcome/src/data&#45;access/remove.js&#45;&gt;lib/deep&#45;clone.js</title>
<path fill="none" stroke="#000000" stroke-width="2" stroke-opacity="0.200000" d="M652.25,-227.83C658,-225.5 663.65,-222.33 668.02,-218 668.57,-217.46 699.68,-136.64 712.92,-102.23"/>
<polygon fill="#000000" fill-opacity="0.200000" stroke="#000000" stroke-width="2" stroke-opacity="0.200000" points="714.98,-102.73 715.17,-96.37 711.06,-101.22 714.98,-102.73"/>
</g>
<!-- integrated&#45;apps/welcome/src/init/index.js -->
<g id="node21" class="node">
<title>integrated&#45;apps/welcome/src/init/index.js</title>
<g id="a_node21"><a xlink:href="integrated-apps/welcome/src/init/index.js" xlink:title="index.js">
<path fill="#ffffcc" stroke="black" d="M87.8,-334.3C87.8,-334.3 46.2,-334.3 46.2,-334.3 43.1,-334.3 40,-331.2 40,-328.1 40,-328.1 40,-321.9 40,-321.9 40,-318.8 43.1,-315.7 46.2,-315.7 46.2,-315.7 87.8,-315.7 87.8,-315.7 90.9,-315.7 94,-318.8 94,-321.9 94,-321.9 94,-328.1 94,-328.1 94,-331.2 90.9,-334.3 87.8,-334.3"/>
<text text-anchor="middle" x="67" y="-322.3" font-family="Helvetica,sans-Serif" font-size="9.00">index.js</text>
</a>
</g>
</g>
<!-- integrated&#45;apps/welcome/src/init/router.js -->
<g id="node22" class="node">
<title>integrated&#45;apps/welcome/src/init/router.js</title>
<g id="a_node22"><a xlink:href="integrated-apps/welcome/src/init/router.js" xlink:title="router.js">
<path fill="#ffffcc" stroke="black" d="M154.8,-319.3C154.8,-319.3 113.2,-319.3 113.2,-319.3 110.1,-319.3 107,-316.2 107,-313.1 107,-313.1 107,-306.9 107,-306.9 107,-303.8 110.1,-300.7 113.2,-300.7 113.2,-300.7 154.8,-300.7 154.8,-300.7 157.9,-300.7 161,-303.8 161,-306.9 161,-306.9 161,-313.1 161,-313.1 161,-316.2 157.9,-319.3 154.8,-319.3"/>
<text text-anchor="middle" x="134" y="-307.3" font-family="Helvetica,sans-Serif" font-size="9.00">router.js</text>
</a>
</g>
</g>
<!-- integrated&#45;apps/welcome/src/init/index.js&#45;&gt;integrated&#45;apps/welcome/src/init/router.js -->
<g id="edge23" class="edge">
<title>integrated&#45;apps/welcome/src/init/index.js&#45;&gt;integrated&#45;apps/welcome/src/init/router.js</title>
<path fill="none" stroke="#000000" stroke-width="2" stroke-opacity="0.200000" d="M94.06,-318.99C96.32,-318.47 98.61,-317.94 100.9,-317.41"/>
<polygon fill="#000000" fill-opacity="0.200000" stroke="#000000" stroke-width="2" stroke-opacity="0.200000" points="101.56,-319.41 106.93,-316.02 100.61,-315.32 101.56,-319.41"/>
</g>
<!-- integrated&#45;apps/welcome/src/init/title.js -->
<g id="node23" class="node">
<title>integrated&#45;apps/welcome/src/init/title.js</title>
<g id="a_node23"><a xlink:href="integrated-apps/welcome/src/init/title.js" xlink:title="title.js">
<path fill="#ffffcc" stroke="black" d="M154.8,-350.3C154.8,-350.3 113.2,-350.3 113.2,-350.3 110.1,-350.3 107,-347.2 107,-344.1 107,-344.1 107,-337.9 107,-337.9 107,-334.8 110.1,-331.7 113.2,-331.7 113.2,-331.7 154.8,-331.7 154.8,-331.7 157.9,-331.7 161,-334.8 161,-337.9 161,-337.9 161,-344.1 161,-344.1 161,-347.2 157.9,-350.3 154.8,-350.3"/>
<text text-anchor="middle" x="134" y="-338.3" font-family="Helvetica,sans-Serif" font-size="9.00">title.js</text>
</a>
</g>
</g>
<!-- integrated&#45;apps/welcome/src/init/index.js&#45;&gt;integrated&#45;apps/welcome/src/init/title.js -->
<g id="edge24" class="edge">
<title>integrated&#45;apps/welcome/src/init/index.js&#45;&gt;integrated&#45;apps/welcome/src/init/title.js</title>
<path fill="none" stroke="#000000" stroke-width="2" stroke-opacity="0.200000" d="M94.06,-331.42C96.32,-331.97 98.61,-332.53 100.9,-333.1"/>
<polygon fill="#000000" fill-opacity="0.200000" stroke="#000000" stroke-width="2" stroke-opacity="0.200000" points="100.6,-335.19 106.93,-334.58 101.61,-331.11 100.6,-335.19"/>
</g>
<!-- integrated&#45;apps/welcome/src/init/router.js&#45;&gt;integrated&#45;apps/welcome/config.js -->
<g id="edge26" class="edge">
<title>integrated&#45;apps/welcome/src/init/router.js&#45;&gt;integrated&#45;apps/welcome/config.js</title>
<path fill="none" stroke="#000000" stroke-width="2" stroke-opacity="0.200000" d="M161.19,-318.43C164.27,-320.44 167.01,-322.93 169,-326 181.3,-344.98 165.21,-713.7 177,-733 177.07,-733.11 177.13,-733.22 177.2,-733.33"/>
<polygon fill="#000000" fill-opacity="0.200000" stroke="#000000" stroke-width="2" stroke-opacity="0.200000" points="175.46,-734.52 180.99,-737.66 178.62,-731.76 175.46,-734.52"/>
</g>
<!-- integrated&#45;apps/welcome/src/init/router.js&#45;&gt;integrated&#45;apps/welcome/src/components/layout/page.js -->
<g id="edge27" class="edge">
<title>integrated&#45;apps/welcome/src/init/router.js&#45;&gt;integrated&#45;apps/welcome/src/components/layout/page.js</title>
<path fill="none" stroke="#000000" stroke-width="2" stroke-opacity="0.200000" d="M149.91,-300.51C157.82,-295.63 167.79,-289.73 177,-285 224.66,-260.5 282.22,-236.41 316.37,-222.67"/>
<polygon fill="#000000" fill-opacity="0.200000" stroke="#000000" stroke-width="2" stroke-opacity="0.200000" points="317.27,-224.57 322.06,-220.39 315.71,-220.67 317.27,-224.57"/>
</g>
<!-- integrated&#45;apps/welcome/src/init/router.js&#45;&gt;integrated&#45;apps/welcome/src/components/pages/four&#45;oh&#45;four.js -->
<g id="edge28" class="edge">
<title>integrated&#45;apps/welcome/src/init/router.js&#45;&gt;integrated&#45;apps/welcome/src/components/pages/four&#45;oh&#45;four.js</title>
<path fill="none" stroke="#000000" stroke-width="2" stroke-opacity="0.200000" d="M161.08,-302C166.32,-300.55 171.81,-299.13 177,-298 220.13,-288.56 270.2,-281.31 304.58,-276.9"/>
<polygon fill="#000000" fill-opacity="0.200000" stroke="#000000" stroke-width="2" stroke-opacity="0.200000" points="305.12,-278.94 310.81,-276.1 304.59,-274.78 305.12,-278.94"/>
</g>
<!-- lib/navigo -->
<g id="node24" class="node">
<title>lib/navigo</title>
<g id="a_node24"><a xlink:href="lib/navigo" xlink:title="navigo">
<polygon fill="#ffffcc" stroke="black" points="746.77,-34.3 694.84,-34.3 692.77,-32.23 692.77,-15.7 744.71,-15.7 746.77,-17.77 746.77,-34.3"/>
<polyline fill="none" stroke="black" points="744.71,-32.23 692.77,-32.23 "/>
<polyline fill="none" stroke="black" points="744.71,-32.23 744.71,-15.7 "/>
<polyline fill="none" stroke="black" points="744.71,-32.23 746.77,-34.3 "/>
<text text-anchor="middle" x="719.77" y="-22.3" font-family="Helvetica,sans-Serif" font-size="9.00">navigo</text>
</a>
</g>
</g>
<!-- integrated&#45;apps/welcome/src/init/router.js&#45;&gt;lib/navigo -->
<g id="edge25" class="edge">
<title>integrated&#45;apps/welcome/src/init/router.js&#45;&gt;lib/navigo</title>
<path fill="none" stroke="#000000" stroke-width="2" stroke-opacity="0.200000" d="M138.3,-300.49C153.93,-257.34 224.92,-82 346,-82 346,-82 346,-82 528.01,-82 559.44,-82 642.46,-53.24 687.93,-36.58"/>
<polygon fill="#000000" fill-opacity="0.200000" stroke="#000000" stroke-width="2" stroke-opacity="0.200000" points="688.92,-38.46 693.82,-34.41 687.46,-34.51 688.92,-38.46"/>
</g>
<!-- integrated&#45;apps/welcome/src/routes.js -->
<g id="node25" class="node">
<title>integrated&#45;apps/welcome/src/routes.js</title>
<g id="a_node25"><a xlink:href="integrated-apps/welcome/src/routes.js" xlink:title="routes.js">
<path fill="#ffffcc" stroke="black" d="M224.8,-345.3C224.8,-345.3 183.2,-345.3 183.2,-345.3 180.1,-345.3 177,-342.2 177,-339.1 177,-339.1 177,-332.9 177,-332.9 177,-329.8 180.1,-326.7 183.2,-326.7 183.2,-326.7 224.8,-326.7 224.8,-326.7 227.9,-326.7 231,-329.8 231,-332.9 231,-332.9 231,-339.1 231,-339.1 231,-342.2 227.9,-345.3 224.8,-345.3"/>
<text text-anchor="middle" x="204" y="-333.3" font-family="Helvetica,sans-Serif" font-size="9.00">routes.js</text>
</a>
</g>
</g>
<!-- integrated&#45;apps/welcome/src/init/router.js&#45;&gt;integrated&#45;apps/welcome/src/routes.js -->
<g id="edge29" class="edge">
<title>integrated&#45;apps/welcome/src/init/router.js&#45;&gt;integrated&#45;apps/welcome/src/routes.js</title>
<path fill="none" stroke="#000000" stroke-width="2" stroke-opacity="0.200000" d="M159.55,-319.39C163.73,-320.99 168.13,-322.67 172.44,-324.32"/>
<polygon fill="#000000" fill-opacity="0.200000" stroke="#000000" stroke-width="2" stroke-opacity="0.200000" points="171.9,-326.36 178.26,-326.54 173.4,-322.44 171.9,-326.36"/>
</g>
<!-- integrated&#45;apps/welcome/src/init/title.js&#45;&gt;integrated&#45;apps/welcome/config.js -->
<g id="edge30" class="edge">
<title>integrated&#45;apps/welcome/src/init/title.js&#45;&gt;integrated&#45;apps/welcome/config.js</title>
<path fill="none" stroke="#000000" stroke-width="2" stroke-opacity="0.200000" d="M134.85,-350.64C134.17,-404.46 133.19,-667.82 177,-733 177.07,-733.11 177.14,-733.21 177.22,-733.32"/>
<polygon fill="#000000" fill-opacity="0.200000" stroke="#000000" stroke-width="2" stroke-opacity="0.200000" points="175.53,-734.58 181.15,-737.55 178.61,-731.73 175.53,-734.58"/>
</g>
<!-- integrated&#45;apps/welcome/src/routes.js&#45;&gt;integrated&#45;apps/welcome/src/components/pages/change&#45;greeting/index.js -->
<g id="edge31" class="edge">
<title>integrated&#45;apps/welcome/src/routes.js&#45;&gt;integrated&#45;apps/welcome/src/components/pages/change&#45;greeting/index.js</title>
<path fill="none" stroke="#000000" stroke-width="2" stroke-opacity="0.200000" d="M231.19,-341.76C254.54,-346.89 288.79,-354.42 313.8,-359.92"/>
<polygon fill="#000000" fill-opacity="0.200000" stroke="#000000" stroke-width="2" stroke-opacity="0.200000" points="313.64,-362.04 319.95,-361.27 314.54,-357.93 313.64,-362.04"/>
</g>
<!-- integrated&#45;apps/welcome/src/routes.js&#45;&gt;integrated&#45;apps/welcome/src/components/pages/change&#45;message/index.js -->
<g id="edge32" class="edge">
<title>integrated&#45;apps/welcome/src/routes.js&#45;&gt;integrated&#45;apps/welcome/src/components/pages/change&#45;message/index.js</title>
<path fill="none" stroke="#000000" stroke-width="2" stroke-opacity="0.200000" d="M231.19,-330.43C254.54,-325.46 288.79,-318.17 313.8,-312.85"/>
<polygon fill="#000000" fill-opacity="0.200000" stroke="#000000" stroke-width="2" stroke-opacity="0.200000" points="314.52,-314.85 319.95,-311.54 313.65,-310.74 314.52,-314.85"/>
</g>
<!-- integrated&#45;apps/welcome/src/routes.js&#45;&gt;integrated&#45;apps/welcome/src/components/pages/home/index.js -->
<g id="edge33" class="edge">
<title>integrated&#45;apps/welcome/src/routes.js&#45;&gt;integrated&#45;apps/welcome/src/components/pages/home/index.js</title>
<path fill="none" stroke="#000000" stroke-width="2" stroke-opacity="0.200000" d="M225.24,-345.32C227.24,-346.48 229.19,-347.71 231,-349 260.41,-370.01 258.62,-386.42 289,-406 296.68,-410.95 305.64,-415.06 314.16,-418.33"/>
<polygon fill="#000000" fill-opacity="0.200000" stroke="#000000" stroke-width="2" stroke-opacity="0.200000" points="313.6,-420.37 319.96,-420.47 315.05,-416.42 313.6,-420.37"/>
</g>
</g>
</svg>
